<svg xmlns="http://www.w3.org/2000/svg" xmlns:xlink="http://www.w3.org/1999/xlink" width="1587" zoomAndPan="magnify" viewBox="0 0 1190.25 1683.749945" height="2245" preserveAspectRatio="xMidYMid meet" version="1.0"><defs><filter x="0%" y="0%" width="100%" height="100%" id="e01d17196f"><feColorMatrix values="0 0 0 0 1 0 0 0 0 1 0 0 0 0 1 0 0 0 1 0" color-interpolation-filters="sRGB"/></filter><mask id="427471433e"><g filter="url(#e01d17196f)"><rect x="-119.025" width="1428.3" fill="#000000" y="-168.374994" height="2020.499934" fill-opacity="0.6471"/></g></mask><clipPath id="cdcb582a92"><path d="M 15.566406 4 L 551 4 L 551 324.230469 L 15.566406 324.230469 Z M 15.566406 4 " clip-rule="nonzero"/></clipPath><clipPath id="d0013cd924"><path d="M 15.566406 1.050781 L 553.8125 1.050781 L 553.8125 324.230469 L 15.566406 324.230469 Z M 15.566406 1.050781 " clip-rule="nonzero"/></clipPath><clipPath id="844b2de6cc"><rect x="0" width="554" y="0" height="560"/></clipPath></defs><path fill="#d4d2d2" d="M 298.527344 1125.515625 C 296.664062 1125.703125 294.808594 1125.976562 292.96875 1126.339844 C 291.128906 1126.699219 289.308594 1127.148438 287.511719 1127.683594 C 285.714844 1128.21875 283.945312 1128.835938 282.207031 1129.539062 C 280.46875 1130.242188 278.765625 1131.027344 277.101562 1131.890625 C 275.4375 1132.757812 273.816406 1133.699219 272.242188 1134.71875 C 270.667969 1135.738281 269.144531 1136.828125 267.675781 1137.992188 C 266.203125 1139.15625 264.792969 1140.386719 263.4375 1141.683594 C 262.085938 1142.984375 260.796875 1144.34375 259.570312 1145.761719 C 258.347656 1147.183594 257.191406 1148.660156 256.109375 1150.191406 C 255.023438 1151.722656 254.015625 1153.300781 253.082031 1154.925781 C 252.148438 1156.550781 251.292969 1158.21875 250.519531 1159.925781 C 249.742188 1161.636719 249.050781 1163.375 248.441406 1165.148438 C 247.832031 1166.921875 247.304688 1168.722656 246.867188 1170.546875 C 246.429688 1172.367188 246.078125 1174.210938 245.816406 1176.066406 C 245.550781 1177.921875 245.375 1179.789062 245.289062 1181.660156 C 245.203125 1183.535156 245.207031 1185.410156 245.300781 1187.28125 C 245.390625 1189.15625 245.574219 1191.019531 245.84375 1192.875 C 246.113281 1194.730469 246.46875 1196.570312 246.914062 1198.394531 C 247.355469 1200.214844 247.886719 1202.011719 248.503906 1203.785156 C 249.117188 1205.554688 249.816406 1207.292969 250.597656 1209 C 251.378906 1210.703125 252.238281 1212.367188 253.175781 1213.992188 C 254.117188 1215.617188 255.128906 1217.191406 256.21875 1218.71875 C 257.308594 1220.246094 258.46875 1221.71875 259.695312 1223.132812 C 260.925781 1224.550781 262.21875 1225.90625 263.578125 1227.199219 C 264.933594 1228.492188 266.351562 1229.71875 267.824219 1230.878906 C 269.300781 1232.039062 270.828125 1233.125 272.402344 1234.136719 C 273.980469 1235.152344 275.605469 1236.089844 277.273438 1236.949219 C 278.9375 1237.808594 280.644531 1238.585938 282.382812 1239.285156 C 284.125 1239.980469 285.894531 1240.59375 287.695312 1241.125 C 289.496094 1241.652344 291.316406 1242.09375 293.15625 1242.449219 C 295 1242.808594 296.851562 1243.074219 298.71875 1243.253906 C 300.585938 1243.433594 302.457031 1243.523438 304.332031 1243.527344 L 885.929688 1243.527344 C 887.804688 1243.523438 889.675781 1243.433594 891.542969 1243.253906 C 893.410156 1243.074219 895.265625 1242.808594 897.105469 1242.449219 C 898.949219 1242.09375 900.769531 1241.652344 902.570312 1241.125 C 904.367188 1240.59375 906.136719 1239.980469 907.878906 1239.285156 C 909.621094 1238.585938 911.324219 1237.808594 912.992188 1236.949219 C 914.660156 1236.089844 916.28125 1235.152344 917.859375 1234.136719 C 919.4375 1233.125 920.964844 1232.039062 922.4375 1230.878906 C 923.914062 1229.71875 925.328125 1228.492188 926.6875 1227.199219 C 928.046875 1225.90625 929.339844 1224.550781 930.566406 1223.132812 C 931.796875 1221.71875 932.957031 1220.246094 934.042969 1218.71875 C 935.132812 1217.191406 936.148438 1215.617188 937.085938 1213.992188 C 938.027344 1212.367188 938.886719 1210.703125 939.667969 1209 C 940.449219 1207.292969 941.144531 1205.554688 941.761719 1203.785156 C 942.375 1202.011719 942.90625 1200.214844 943.351562 1198.394531 C 943.796875 1196.570312 944.152344 1194.730469 944.421875 1192.875 C 944.691406 1191.019531 944.871094 1189.15625 944.964844 1187.28125 C 945.058594 1185.410156 945.058594 1183.535156 944.972656 1181.660156 C 944.886719 1179.789062 944.714844 1177.921875 944.449219 1176.066406 C 944.1875 1174.210938 943.835938 1172.367188 943.394531 1170.546875 C 942.957031 1168.722656 942.433594 1166.921875 941.824219 1165.148438 C 941.214844 1163.375 940.523438 1161.636719 939.746094 1159.925781 C 938.972656 1158.21875 938.117188 1156.550781 937.183594 1154.925781 C 936.25 1153.300781 935.238281 1151.722656 934.15625 1150.191406 C 933.070312 1148.660156 931.917969 1147.183594 930.691406 1145.761719 C 929.46875 1144.34375 928.179688 1142.984375 926.824219 1141.683594 C 925.472656 1140.386719 924.058594 1139.15625 922.589844 1137.992188 C 921.117188 1136.828125 919.59375 1135.738281 918.019531 1134.71875 C 916.445312 1133.699219 914.828125 1132.757812 913.160156 1131.890625 C 911.496094 1131.027344 909.796875 1130.242188 908.058594 1129.539062 C 906.316406 1128.835938 904.550781 1128.21875 902.753906 1127.683594 C 900.953125 1127.148438 899.136719 1126.699219 897.296875 1126.339844 C 895.453125 1125.976562 893.601562 1125.703125 891.734375 1125.515625 L 891.734375 637.652344 C 893.601562 637.464844 895.453125 637.191406 897.296875 636.828125 C 899.136719 636.46875 900.953125 636.019531 902.753906 635.484375 C 904.550781 634.949219 906.316406 634.332031 908.058594 633.628906 C 909.796875 632.925781 911.496094 632.140625 913.160156 631.277344 C 914.824219 630.410156 916.445312 629.46875 918.019531 628.449219 C 919.59375 627.429688 921.117188 626.339844 922.589844 625.175781 C 924.058594 624.011719 925.472656 622.78125 926.824219 621.484375 C 928.179688 620.183594 929.46875 618.824219 930.691406 617.402344 C 931.917969 615.984375 933.070312 614.507812 934.15625 612.976562 C 935.238281 611.445312 936.25 609.867188 937.183594 608.242188 C 938.117188 606.613281 938.96875 604.949219 939.746094 603.238281 C 940.519531 601.53125 941.214844 599.792969 941.824219 598.019531 C 942.433594 596.246094 942.957031 594.445312 943.394531 592.621094 C 943.835938 590.796875 944.183594 588.957031 944.449219 587.101562 C 944.710938 585.246094 944.886719 583.378906 944.972656 581.507812 C 945.058594 579.632812 945.054688 577.757812 944.964844 575.886719 C 944.871094 574.011719 944.691406 572.148438 944.421875 570.292969 C 944.152344 568.4375 943.796875 566.597656 943.351562 564.773438 C 942.90625 562.953125 942.375 561.15625 941.761719 559.382812 C 941.144531 557.613281 940.449219 555.875 939.667969 554.167969 C 938.886719 552.464844 938.027344 550.796875 937.085938 549.175781 C 936.148438 547.550781 935.132812 545.976562 934.042969 544.449219 C 932.957031 542.921875 931.796875 541.449219 930.566406 540.035156 C 929.339844 538.617188 928.046875 537.261719 926.6875 535.96875 C 925.328125 534.675781 923.914062 533.449219 922.4375 532.289062 C 920.964844 531.128906 919.4375 530.042969 917.859375 529.03125 C 916.28125 528.015625 914.660156 527.078125 912.992188 526.21875 C 911.324219 525.359375 909.621094 524.582031 907.878906 523.882812 C 906.136719 523.1875 904.367188 522.574219 902.570312 522.042969 C 900.769531 521.515625 898.949219 521.074219 897.105469 520.714844 C 895.265625 520.359375 893.410156 520.09375 891.542969 519.914062 C 889.675781 519.734375 887.804688 519.644531 885.929688 519.640625 L 547.074219 519.640625 L 547.074219 497.613281 C 547.074219 496.640625 546.992188 495.671875 546.828125 494.714844 C 546.664062 493.757812 546.417969 492.816406 546.09375 491.902344 C 545.765625 490.984375 545.367188 490.101562 544.890625 489.253906 C 544.414062 488.40625 543.871094 487.601562 543.257812 486.847656 C 542.644531 486.09375 541.96875 485.394531 541.238281 484.753906 C 540.503906 484.113281 539.722656 483.539062 538.890625 483.035156 C 538.0625 482.527344 537.195312 482.09375 536.289062 481.738281 C 535.382812 481.378906 534.457031 481.101562 533.503906 480.902344 L 347.148438 441.835938 C 346.53125 441.703125 345.90625 441.609375 345.277344 441.550781 C 344.644531 441.488281 344.015625 441.464844 343.382812 441.472656 C 342.75 441.484375 342.121094 441.527344 341.492188 441.609375 C 340.863281 441.6875 340.242188 441.804688 339.628906 441.953125 C 339.011719 442.101562 338.410156 442.285156 337.8125 442.5 C 337.21875 442.714844 336.640625 442.964844 336.070312 443.246094 C 335.503906 443.527344 334.957031 443.839844 334.421875 444.179688 C 333.890625 444.523438 333.378906 444.890625 332.886719 445.289062 C 332.398438 445.691406 331.929688 446.113281 331.484375 446.566406 C 331.042969 447.015625 330.625 447.488281 330.234375 447.988281 C 329.839844 448.484375 329.480469 449 329.144531 449.539062 C 328.8125 450.078125 328.507812 450.632812 328.238281 451.203125 C 327.964844 451.773438 327.726562 452.359375 327.519531 452.957031 C 327.3125 453.554688 327.136719 454.160156 327 454.777344 C 326.859375 455.394531 326.753906 456.015625 326.683594 456.644531 C 326.613281 457.273438 326.578125 457.90625 326.578125 458.539062 L 326.578125 519.609375 L 304.332031 519.609375 C 302.449219 519.597656 300.570312 519.675781 298.695312 519.847656 C 296.820312 520.015625 294.957031 520.273438 293.105469 520.621094 C 291.253906 520.96875 289.425781 521.40625 287.613281 521.925781 C 285.804688 522.449219 284.027344 523.054688 282.273438 523.75 C 280.523438 524.441406 278.808594 525.214844 277.128906 526.070312 C 275.453125 526.925781 273.820312 527.859375 272.230469 528.871094 C 270.644531 529.882812 269.109375 530.96875 267.625 532.128906 C 266.136719 533.285156 264.710938 534.511719 263.34375 535.808594 C 261.976562 537.101562 260.675781 538.460938 259.4375 539.878906 C 258.199219 541.296875 257.03125 542.773438 255.933594 544.304688 C 254.839844 545.835938 253.816406 547.414062 252.871094 549.042969 C 251.925781 550.671875 251.058594 552.339844 250.273438 554.050781 C 249.484375 555.761719 248.78125 557.507812 248.164062 559.285156 C 247.542969 561.0625 247.007812 562.867188 246.5625 564.695312 C 246.113281 566.527344 245.753906 568.371094 245.480469 570.234375 C 245.210938 572.097656 245.027344 573.972656 244.9375 575.851562 C 244.84375 577.734375 244.839844 579.613281 244.929688 581.496094 C 245.015625 583.375 245.191406 585.25 245.457031 587.113281 C 245.722656 588.976562 246.078125 590.824219 246.519531 592.65625 C 246.964844 594.484375 247.492188 596.289062 248.105469 598.070312 C 248.722656 599.851562 249.421875 601.597656 250.203125 603.308594 C 250.984375 605.023438 251.847656 606.695312 252.789062 608.324219 C 253.730469 609.957031 254.746094 611.539062 255.839844 613.074219 C 256.929688 614.605469 258.09375 616.085938 259.328125 617.507812 C 260.5625 618.929688 261.859375 620.289062 263.222656 621.589844 C 264.585938 622.886719 266.011719 624.117188 267.492188 625.28125 C 268.972656 626.445312 270.507812 627.535156 272.089844 628.550781 C 273.675781 629.566406 275.308594 630.503906 276.980469 631.367188 C 278.65625 632.226562 280.371094 633.003906 282.117188 633.703125 C 283.867188 634.398438 285.648438 635.011719 287.453125 635.539062 C 289.261719 636.066406 291.089844 636.507812 292.941406 636.859375 C 294.792969 637.210938 296.652344 637.476562 298.527344 637.652344 Z M 857.625 1125.226562 L 332.671875 1125.226562 L 332.671875 1045.0625 L 474.777344 1045.0625 C 475.335938 1045.0625 475.894531 1045.035156 476.449219 1044.980469 C 477.007812 1044.925781 477.558594 1044.84375 478.105469 1044.734375 C 478.65625 1044.625 479.199219 1044.492188 479.734375 1044.328125 C 480.265625 1044.167969 480.792969 1043.976562 481.308594 1043.765625 C 481.828125 1043.550781 482.332031 1043.3125 482.824219 1043.046875 C 483.316406 1042.785156 483.796875 1042.496094 484.261719 1042.1875 C 484.726562 1041.875 485.175781 1041.542969 485.605469 1041.1875 C 486.039062 1040.835938 486.453125 1040.460938 486.847656 1040.0625 C 487.242188 1039.667969 487.617188 1039.253906 487.972656 1038.824219 C 488.328125 1038.390625 488.660156 1037.941406 488.972656 1037.476562 C 489.28125 1037.011719 489.570312 1036.535156 489.832031 1036.039062 C 490.097656 1035.546875 490.335938 1035.042969 490.550781 1034.527344 C 490.761719 1034.007812 490.949219 1033.484375 491.113281 1032.949219 C 491.277344 1032.414062 491.410156 1031.871094 491.519531 1031.324219 C 491.628906 1030.773438 491.710938 1030.222656 491.765625 1029.667969 C 491.820312 1029.109375 491.847656 1028.550781 491.847656 1027.992188 C 491.847656 1027.433594 491.820312 1026.875 491.765625 1026.320312 C 491.710938 1025.765625 491.628906 1025.210938 491.519531 1024.664062 C 491.410156 1024.113281 491.277344 1023.574219 491.113281 1023.039062 C 490.949219 1022.503906 490.761719 1021.976562 490.550781 1021.460938 C 490.335938 1020.945312 490.097656 1020.4375 489.832031 1019.945312 C 489.570312 1019.453125 489.28125 1018.972656 488.972656 1018.507812 C 488.660156 1018.042969 488.328125 1017.597656 487.972656 1017.164062 C 487.617188 1016.730469 487.242188 1016.316406 486.847656 1015.921875 C 486.453125 1015.527344 486.039062 1015.152344 485.605469 1014.796875 C 485.175781 1014.441406 484.726562 1014.109375 484.261719 1013.800781 C 483.796875 1013.488281 483.316406 1013.203125 482.824219 1012.9375 C 482.332031 1012.675781 481.828125 1012.4375 481.308594 1012.222656 C 480.792969 1012.007812 480.265625 1011.820312 479.734375 1011.65625 C 479.199219 1011.496094 478.65625 1011.359375 478.105469 1011.25 C 477.558594 1011.140625 477.007812 1011.058594 476.449219 1011.003906 C 475.894531 1010.949219 475.335938 1010.921875 474.777344 1010.921875 L 332.671875 1010.921875 L 332.671875 898.640625 L 474.777344 898.640625 C 475.335938 898.640625 475.894531 898.613281 476.449219 898.558594 C 477.007812 898.503906 477.558594 898.421875 478.105469 898.3125 C 478.65625 898.203125 479.199219 898.070312 479.734375 897.90625 C 480.265625 897.746094 480.792969 897.554688 481.308594 897.34375 C 481.828125 897.128906 482.332031 896.890625 482.824219 896.625 C 483.316406 896.363281 483.796875 896.074219 484.261719 895.765625 C 484.726562 895.453125 485.175781 895.121094 485.605469 894.765625 C 486.039062 894.410156 486.453125 894.035156 486.847656 893.640625 C 487.242188 893.246094 487.617188 892.832031 487.972656 892.402344 C 488.328125 891.96875 488.660156 891.519531 488.972656 891.054688 C 489.28125 890.589844 489.570312 890.109375 489.832031 889.617188 C 490.097656 889.125 490.335938 888.621094 490.550781 888.105469 C 490.761719 887.585938 490.949219 887.0625 491.113281 886.527344 C 491.277344 885.992188 491.410156 885.449219 491.519531 884.902344 C 491.628906 884.351562 491.710938 883.800781 491.765625 883.246094 C 491.820312 882.6875 491.847656 882.128906 491.847656 881.570312 C 491.847656 881.011719 491.820312 880.453125 491.765625 879.898438 C 491.710938 879.339844 491.628906 878.789062 491.519531 878.242188 C 491.410156 877.691406 491.277344 877.152344 491.113281 876.617188 C 490.949219 876.082031 490.761719 875.554688 490.550781 875.039062 C 490.335938 874.523438 490.097656 874.015625 489.832031 873.523438 C 489.570312 873.03125 489.28125 872.550781 488.972656 872.085938 C 488.660156 871.621094 488.328125 871.171875 487.972656 870.742188 C 487.617188 870.308594 487.242188 869.894531 486.847656 869.5 C 486.453125 869.105469 486.039062 868.730469 485.605469 868.375 C 485.175781 868.019531 484.726562 867.6875 484.261719 867.378906 C 483.796875 867.066406 483.316406 866.78125 482.824219 866.515625 C 482.332031 866.253906 481.828125 866.015625 481.308594 865.800781 C 480.792969 865.585938 480.265625 865.398438 479.734375 865.234375 C 479.199219 865.074219 478.65625 864.9375 478.105469 864.828125 C 477.558594 864.71875 477.007812 864.636719 476.449219 864.582031 C 475.894531 864.527344 475.335938 864.5 474.777344 864.5 L 332.671875 864.5 L 332.671875 752.210938 L 474.777344 752.210938 C 475.335938 752.210938 475.894531 752.183594 476.449219 752.128906 C 477.007812 752.074219 477.558594 751.992188 478.105469 751.882812 C 478.65625 751.773438 479.199219 751.636719 479.734375 751.476562 C 480.265625 751.3125 480.792969 751.125 481.308594 750.910156 C 481.828125 750.699219 482.332031 750.457031 482.824219 750.195312 C 483.316406 749.929688 483.796875 749.644531 484.261719 749.332031 C 484.726562 749.023438 485.175781 748.691406 485.605469 748.335938 C 486.039062 747.980469 486.453125 747.605469 486.847656 747.210938 C 487.242188 746.816406 487.617188 746.402344 487.972656 745.96875 C 488.328125 745.539062 488.660156 745.089844 488.972656 744.625 C 489.28125 744.160156 489.570312 743.679688 489.832031 743.1875 C 490.097656 742.695312 490.335938 742.1875 490.550781 741.671875 C 490.761719 741.15625 490.949219 740.628906 491.113281 740.09375 C 491.277344 739.558594 491.410156 739.019531 491.519531 738.46875 C 491.628906 737.921875 491.710938 737.371094 491.765625 736.8125 C 491.820312 736.257812 491.847656 735.699219 491.847656 735.140625 C 491.847656 734.582031 491.820312 734.023438 491.765625 733.46875 C 491.710938 732.910156 491.628906 732.359375 491.519531 731.808594 C 491.410156 731.261719 491.277344 730.71875 491.113281 730.183594 C 490.949219 729.648438 490.761719 729.125 490.550781 728.609375 C 490.335938 728.089844 490.097656 727.585938 489.832031 727.09375 C 489.570312 726.601562 489.28125 726.121094 488.972656 725.65625 C 488.660156 725.191406 488.328125 724.742188 487.972656 724.3125 C 487.617188 723.878906 487.242188 723.464844 486.847656 723.070312 C 486.453125 722.675781 486.039062 722.300781 485.605469 721.945312 C 485.175781 721.589844 484.726562 721.257812 484.261719 720.945312 C 483.796875 720.636719 483.316406 720.347656 482.824219 720.085938 C 482.332031 719.820312 481.828125 719.582031 481.308594 719.367188 C 480.792969 719.15625 480.265625 718.96875 479.734375 718.804688 C 479.199219 718.640625 478.65625 718.507812 478.105469 718.398438 C 477.558594 718.289062 477.007812 718.207031 476.449219 718.152344 C 475.894531 718.097656 475.335938 718.070312 474.777344 718.070312 L 332.671875 718.070312 L 332.671875 637.90625 L 857.625 637.90625 Z M 910.957031 1184.375 C 910.957031 1185.195312 910.914062 1186.011719 910.832031 1186.828125 C 910.753906 1187.640625 910.632812 1188.449219 910.472656 1189.253906 C 910.308594 1190.058594 910.109375 1190.851562 909.871094 1191.632812 C 909.632812 1192.417969 909.359375 1193.1875 909.042969 1193.941406 C 908.730469 1194.699219 908.378906 1195.4375 907.992188 1196.160156 C 907.605469 1196.882812 907.1875 1197.585938 906.730469 1198.265625 C 906.273438 1198.945312 905.789062 1199.601562 905.269531 1200.234375 C 904.746094 1200.867188 904.199219 1201.472656 903.621094 1202.054688 C 903.039062 1202.632812 902.433594 1203.179688 901.800781 1203.699219 C 901.167969 1204.21875 900.511719 1204.707031 899.828125 1205.164062 C 899.148438 1205.617188 898.449219 1206.039062 897.726562 1206.425781 C 897.003906 1206.8125 896.261719 1207.160156 895.507812 1207.472656 C 894.75 1207.789062 893.980469 1208.0625 893.195312 1208.300781 C 892.414062 1208.539062 891.621094 1208.738281 890.816406 1208.898438 C 890.015625 1209.058594 889.203125 1209.179688 888.390625 1209.261719 C 887.574219 1209.34375 886.757812 1209.382812 885.9375 1209.382812 L 304.332031 1209.382812 C 303.515625 1209.382812 302.699219 1209.34375 301.882812 1209.265625 C 301.066406 1209.183594 300.257812 1209.0625 299.453125 1208.902344 C 298.652344 1208.746094 297.859375 1208.546875 297.074219 1208.308594 C 296.289062 1208.070312 295.519531 1207.792969 294.761719 1207.480469 C 294.007812 1207.167969 293.265625 1206.816406 292.542969 1206.433594 C 291.820312 1206.046875 291.121094 1205.625 290.4375 1205.167969 C 289.757812 1204.714844 289.101562 1204.226562 288.46875 1203.707031 C 287.835938 1203.1875 287.226562 1202.640625 286.648438 1202.058594 C 286.070312 1201.480469 285.519531 1200.875 285 1200.242188 C 284.480469 1199.609375 283.992188 1198.949219 283.539062 1198.269531 C 283.082031 1197.589844 282.664062 1196.886719 282.277344 1196.164062 C 281.890625 1195.441406 281.539062 1194.703125 281.226562 1193.945312 C 280.914062 1193.191406 280.636719 1192.417969 280.402344 1191.636719 C 280.164062 1190.851562 279.964844 1190.058594 279.804688 1189.253906 C 279.644531 1188.453125 279.523438 1187.644531 279.445312 1186.828125 C 279.363281 1186.011719 279.324219 1185.195312 279.324219 1184.375 C 279.324219 1183.558594 279.363281 1182.738281 279.445312 1181.925781 C 279.523438 1181.109375 279.644531 1180.300781 279.804688 1179.496094 C 279.964844 1178.695312 280.164062 1177.902344 280.402344 1177.117188 C 280.636719 1176.332031 280.914062 1175.5625 281.226562 1174.804688 C 281.539062 1174.050781 281.890625 1173.308594 282.277344 1172.585938 C 282.664062 1171.863281 283.082031 1171.164062 283.539062 1170.480469 C 283.992188 1169.800781 284.480469 1169.144531 285 1168.511719 C 285.519531 1167.878906 286.070312 1167.273438 286.648438 1166.691406 C 287.226562 1166.113281 287.835938 1165.5625 288.46875 1165.042969 C 289.101562 1164.523438 289.757812 1164.039062 290.4375 1163.582031 C 291.121094 1163.128906 291.820312 1162.707031 292.542969 1162.320312 C 293.265625 1161.933594 294.007812 1161.585938 294.761719 1161.273438 C 295.519531 1160.957031 296.289062 1160.683594 297.074219 1160.445312 C 297.859375 1160.207031 298.652344 1160.007812 299.453125 1159.847656 C 300.257812 1159.6875 301.066406 1159.570312 301.882812 1159.488281 C 302.699219 1159.40625 303.515625 1159.367188 304.332031 1159.367188 L 885.929688 1159.367188 C 886.75 1159.367188 887.566406 1159.410156 888.382812 1159.488281 C 889.199219 1159.570312 890.007812 1159.691406 890.808594 1159.851562 C 891.613281 1160.011719 892.40625 1160.207031 893.191406 1160.445312 C 893.976562 1160.683594 894.746094 1160.960938 895.503906 1161.273438 C 896.257812 1161.585938 897 1161.9375 897.722656 1162.324219 C 898.445312 1162.710938 899.144531 1163.128906 899.828125 1163.585938 C 900.507812 1164.039062 901.164062 1164.527344 901.800781 1165.046875 C 902.433594 1165.566406 903.039062 1166.113281 903.617188 1166.695312 C 904.199219 1167.273438 904.746094 1167.878906 905.269531 1168.511719 C 905.789062 1169.144531 906.277344 1169.800781 906.730469 1170.484375 C 907.1875 1171.164062 907.609375 1171.867188 907.996094 1172.589844 C 908.382812 1173.308594 908.730469 1174.050781 909.046875 1174.804688 C 909.359375 1175.5625 909.636719 1176.332031 909.875 1177.117188 C 910.113281 1177.898438 910.3125 1178.695312 910.472656 1179.496094 C 910.632812 1180.300781 910.753906 1181.109375 910.835938 1181.925781 C 910.914062 1182.738281 910.957031 1183.558594 910.957031 1184.375 Z M 360.722656 479.558594 L 512.933594 511.472656 L 512.933594 519.609375 L 360.722656 519.609375 Z M 279.304688 578.757812 C 279.308594 577.9375 279.347656 577.121094 279.429688 576.304688 C 279.511719 575.492188 279.632812 574.683594 279.792969 573.878906 C 279.953125 573.074219 280.152344 572.28125 280.390625 571.5 C 280.628906 570.714844 280.902344 569.945312 281.21875 569.1875 C 281.53125 568.429688 281.882812 567.691406 282.269531 566.96875 C 282.65625 566.246094 283.074219 565.546875 283.53125 564.863281 C 283.984375 564.183594 284.472656 563.527344 284.992188 562.894531 C 285.511719 562.261719 286.0625 561.65625 286.640625 561.074219 C 287.222656 560.496094 287.828125 559.945312 288.460938 559.425781 C 289.09375 558.90625 289.75 558.417969 290.429688 557.964844 C 291.113281 557.507812 291.8125 557.089844 292.535156 556.703125 C 293.257812 556.316406 294 555.964844 294.753906 555.652344 C 295.511719 555.335938 296.28125 555.0625 297.066406 554.824219 C 297.847656 554.585938 298.644531 554.386719 299.445312 554.226562 C 300.25 554.066406 301.058594 553.945312 301.875 553.863281 C 302.6875 553.78125 303.507812 553.742188 304.324219 553.742188 L 885.929688 553.742188 C 886.75 553.742188 887.566406 553.78125 888.382812 553.859375 C 889.195312 553.941406 890.007812 554.0625 890.808594 554.222656 C 891.613281 554.378906 892.40625 554.578125 893.191406 554.816406 C 893.972656 555.054688 894.746094 555.332031 895.5 555.644531 C 896.257812 555.957031 896.996094 556.308594 897.71875 556.691406 C 898.441406 557.078125 899.144531 557.5 899.824219 557.953125 C 900.507812 558.410156 901.164062 558.898438 901.796875 559.417969 C 902.429688 559.9375 903.035156 560.484375 903.613281 561.066406 C 904.195312 561.644531 904.742188 562.25 905.261719 562.882812 C 905.78125 563.515625 906.269531 564.171875 906.726562 564.855469 C 907.179688 565.535156 907.601562 566.238281 907.988281 566.960938 C 908.375 567.683594 908.722656 568.421875 909.035156 569.179688 C 909.351562 569.933594 909.625 570.707031 909.863281 571.488281 C 910.101562 572.273438 910.300781 573.066406 910.460938 573.871094 C 910.621094 574.671875 910.738281 575.480469 910.820312 576.296875 C 910.898438 577.113281 910.941406 577.929688 910.941406 578.75 C 910.941406 579.566406 910.898438 580.386719 910.820312 581.199219 C 910.738281 582.015625 910.621094 582.824219 910.460938 583.628906 C 910.300781 584.429688 910.101562 585.222656 909.863281 586.007812 C 909.625 586.792969 909.351562 587.5625 909.035156 588.320312 C 908.722656 589.074219 908.375 589.816406 907.988281 590.539062 C 907.601562 591.261719 907.179688 591.960938 906.726562 592.640625 C 906.269531 593.324219 905.78125 593.980469 905.261719 594.613281 C 904.742188 595.246094 904.195312 595.851562 903.613281 596.433594 C 903.035156 597.011719 902.429688 597.5625 901.796875 598.082031 C 901.164062 598.601562 900.507812 599.085938 899.824219 599.542969 C 899.144531 599.996094 898.441406 600.417969 897.71875 600.804688 C 896.996094 601.191406 896.257812 601.539062 895.5 601.851562 C 894.746094 602.167969 893.972656 602.441406 893.191406 602.679688 C 892.40625 602.917969 891.613281 603.117188 890.808594 603.277344 C 890.007812 603.4375 889.195312 603.554688 888.382812 603.636719 C 887.566406 603.71875 886.75 603.757812 885.929688 603.757812 L 304.332031 603.757812 C 303.515625 603.757812 302.699219 603.714844 301.882812 603.636719 C 301.066406 603.554688 300.257812 603.433594 299.453125 603.273438 C 298.652344 603.117188 297.859375 602.917969 297.074219 602.679688 C 296.289062 602.441406 295.519531 602.164062 294.761719 601.851562 C 294.007812 601.539062 293.265625 601.1875 292.542969 600.804688 C 291.820312 600.417969 291.121094 599.996094 290.4375 599.542969 C 289.757812 599.085938 289.101562 598.601562 288.46875 598.082031 C 287.835938 597.5625 287.226562 597.011719 286.648438 596.433594 C 286.070312 595.855469 285.519531 595.25 285 594.617188 C 284.480469 593.984375 283.992188 593.328125 283.535156 592.644531 C 283.082031 591.964844 282.660156 591.265625 282.273438 590.542969 C 281.886719 589.820312 281.535156 589.082031 281.222656 588.324219 C 280.90625 587.570312 280.628906 586.796875 280.390625 586.015625 C 280.152344 585.230469 279.953125 584.4375 279.792969 583.636719 C 279.632812 582.832031 279.511719 582.023438 279.429688 581.207031 C 279.347656 580.394531 279.308594 579.578125 279.304688 578.757812 Z M 279.304688 578.757812 " fill-opacity="1" fill-rule="nonzero"/><g mask="url(#427471433e)"><g transform="matrix(1, 0, 0, 1, 313, 805)"><g clip-path="url(#844b2de6cc)"><g clip-path="url(#cdcb582a92)"><path fill="#57f9ff" d="M 48.394531 4.082031 L 506 4.082031 C 507.464844 4.082031 508.925781 4.15625 510.386719 4.296875 C 511.84375 4.441406 513.292969 4.65625 514.726562 4.941406 C 516.164062 5.226562 517.585938 5.582031 518.988281 6.007812 C 520.390625 6.433594 521.765625 6.925781 523.121094 7.488281 C 524.476562 8.050781 525.796875 8.675781 527.089844 9.363281 C 528.382812 10.054688 529.636719 10.808594 530.855469 11.621094 C 532.074219 12.4375 533.25 13.308594 534.382812 14.238281 C 535.515625 15.167969 536.597656 16.148438 537.636719 17.1875 C 538.671875 18.222656 539.65625 19.304688 540.585938 20.4375 C 541.511719 21.570312 542.386719 22.746094 543.199219 23.964844 C 544.011719 25.183594 544.765625 26.4375 545.457031 27.730469 C 546.148438 29.023438 546.773438 30.34375 547.332031 31.699219 C 547.894531 33.050781 548.386719 34.429688 548.8125 35.832031 C 549.238281 37.234375 549.59375 38.652344 549.878906 40.089844 C 550.164062 41.527344 550.378906 42.976562 550.523438 44.433594 C 550.667969 45.890625 550.738281 47.351562 550.738281 48.820312 L 550.738281 510.4375 C 550.738281 511.902344 550.667969 513.367188 550.523438 514.824219 C 550.378906 516.28125 550.164062 517.730469 549.878906 519.167969 C 549.59375 520.605469 549.238281 522.023438 548.8125 523.425781 C 548.386719 524.828125 547.894531 526.203125 547.332031 527.558594 C 546.773438 528.914062 546.148438 530.234375 545.457031 531.527344 C 544.765625 532.820312 544.011719 534.074219 543.199219 535.292969 C 542.386719 536.511719 541.511719 537.6875 540.585938 538.820312 C 539.65625 539.953125 538.671875 541.035156 537.636719 542.070312 C 536.597656 543.109375 535.515625 544.089844 534.382812 545.019531 C 533.25 545.949219 532.074219 546.820312 530.855469 547.636719 C 529.636719 548.449219 528.382812 549.203125 527.089844 549.890625 C 525.796875 550.582031 524.476562 551.207031 523.121094 551.769531 C 521.765625 552.328125 520.390625 552.824219 518.988281 553.25 C 517.585938 553.671875 516.164062 554.027344 514.726562 554.316406 C 513.292969 554.601562 511.84375 554.816406 510.386719 554.960938 C 508.925781 555.101562 507.464844 555.175781 506 555.175781 L 48.394531 555.175781 C 46.925781 555.175781 45.464844 555.101562 44.007812 554.960938 C 42.550781 554.816406 41.101562 554.601562 39.664062 554.316406 C 38.226562 554.027344 36.808594 553.671875 35.40625 553.25 C 34.003906 552.824219 32.625 552.328125 31.273438 551.769531 C 29.917969 551.207031 28.59375 550.582031 27.304688 549.890625 C 26.011719 549.203125 24.753906 548.449219 23.539062 547.636719 C 22.320312 546.820312 21.144531 545.949219 20.011719 545.019531 C 18.878906 544.089844 17.792969 543.109375 16.757812 542.070312 C 15.722656 541.035156 14.738281 539.953125 13.808594 538.820312 C 12.878906 537.6875 12.007812 536.511719 11.195312 535.292969 C 10.378906 534.074219 9.628906 532.820312 8.9375 531.527344 C 8.246094 530.234375 7.621094 528.914062 7.058594 527.558594 C 6.5 526.203125 6.003906 524.828125 5.582031 523.425781 C 5.15625 522.023438 4.800781 520.601562 4.511719 519.167969 C 4.226562 517.730469 4.011719 516.28125 3.867188 514.824219 C 3.726562 513.367188 3.652344 511.902344 3.652344 510.4375 L 3.652344 48.820312 C 3.652344 47.351562 3.726562 45.890625 3.867188 44.433594 C 4.011719 42.976562 4.226562 41.527344 4.511719 40.089844 C 4.800781 38.652344 5.15625 37.234375 5.582031 35.832031 C 6.003906 34.429688 6.5 33.050781 7.058594 31.699219 C 7.621094 30.34375 8.246094 29.023438 8.9375 27.730469 C 9.628906 26.4375 10.378906 25.183594 11.195312 23.964844 C 12.007812 22.746094 12.878906 21.570312 13.808594 20.4375 C 14.738281 19.304688 15.722656 18.222656 16.757812 17.1875 C 17.792969 16.148438 18.878906 15.167969 20.011719 14.238281 C 21.144531 13.308594 22.320312 12.4375 23.539062 11.621094 C 24.753906 10.808594 26.011719 10.054688 27.304688 9.363281 C 28.59375 8.675781 29.917969 8.050781 31.273438 7.488281 C 32.625 6.925781 34.003906 6.433594 35.40625 6.007812 C 36.808594 5.582031 38.226562 5.226562 39.664062 4.941406 C 41.101562 4.65625 42.550781 4.441406 44.007812 4.296875 C 45.464844 4.15625 46.925781 4.082031 48.394531 4.082031 Z M 48.394531 4.082031 " fill-opacity="1" fill-rule="nonzero"/></g><g clip-path="url(#d0013cd924)"><path fill="#ffffff" d="M 506 558.21875 L 48.394531 558.21875 C 46.832031 558.21875 45.269531 558.140625 43.714844 557.984375 C 42.160156 557.832031 40.617188 557.601562 39.082031 557.296875 C 37.550781 556.988281 36.039062 556.609375 34.542969 556.15625 C 33.046875 555.699219 31.578125 555.175781 30.132812 554.574219 C 28.6875 553.976562 27.277344 553.308594 25.898438 552.574219 C 24.519531 551.835938 23.183594 551.035156 21.882812 550.167969 C 20.582031 549.296875 19.328125 548.371094 18.121094 547.378906 C 16.910156 546.386719 15.753906 545.339844 14.648438 544.234375 C 13.542969 543.132812 12.492188 541.976562 11.5 540.769531 C 10.507812 539.5625 9.578125 538.308594 8.707031 537.011719 C 7.839844 535.710938 7.035156 534.375 6.296875 532.996094 C 5.558594 531.617188 4.886719 530.207031 4.289062 528.765625 C 3.6875 527.324219 3.160156 525.855469 2.703125 524.359375 C 2.246094 522.863281 1.863281 521.351562 1.558594 519.820312 C 1.25 518.285156 1.015625 516.742188 0.859375 515.1875 C 0.703125 513.632812 0.625 512.074219 0.621094 510.511719 L 0.621094 48.820312 C 0.621094 47.253906 0.699219 45.695312 0.855469 44.136719 C 1.011719 42.582031 1.242188 41.035156 1.546875 39.503906 C 1.851562 37.96875 2.234375 36.453125 2.6875 34.957031 C 3.144531 33.460938 3.671875 31.992188 4.269531 30.546875 C 4.871094 29.101562 5.539062 27.6875 6.277344 26.308594 C 7.015625 24.929688 7.816406 23.589844 8.6875 22.292969 C 9.554688 20.992188 10.488281 19.738281 11.480469 18.527344 C 12.472656 17.320312 13.519531 16.160156 14.628906 15.054688 C 15.734375 13.949219 16.890625 12.902344 18.101562 11.90625 C 19.308594 10.914062 20.5625 9.984375 21.863281 9.117188 C 23.164062 8.246094 24.503906 7.441406 25.882812 6.703125 C 27.261719 5.96875 28.675781 5.296875 30.117188 4.699219 C 31.5625 4.101562 33.035156 3.574219 34.53125 3.117188 C 36.027344 2.664062 37.542969 2.28125 39.078125 1.976562 C 40.609375 1.671875 42.15625 1.4375 43.710938 1.285156 C 45.269531 1.128906 46.828125 1.050781 48.394531 1.050781 L 506 1.050781 C 507.566406 1.050781 509.125 1.128906 510.683594 1.28125 C 512.238281 1.4375 513.785156 1.667969 515.320312 1.972656 C 516.855469 2.277344 518.371094 2.65625 519.867188 3.113281 C 521.363281 3.566406 522.835938 4.09375 524.28125 4.691406 C 525.726562 5.292969 527.140625 5.960938 528.519531 6.695312 C 529.898438 7.433594 531.238281 8.238281 532.542969 9.105469 C 533.84375 9.976562 535.097656 10.90625 536.308594 11.898438 C 537.515625 12.890625 538.675781 13.941406 539.78125 15.046875 C 540.886719 16.152344 541.9375 17.308594 542.929688 18.519531 C 543.925781 19.730469 544.855469 20.984375 545.726562 22.285156 C 546.59375 23.585938 547.398438 24.925781 548.136719 26.304688 C 548.875 27.683594 549.546875 29.09375 550.144531 30.539062 C 550.746094 31.984375 551.273438 33.457031 551.726562 34.953125 C 552.183594 36.449219 552.5625 37.964844 552.871094 39.5 C 553.175781 41.035156 553.40625 42.578125 553.5625 44.136719 C 553.714844 45.691406 553.792969 47.253906 553.796875 48.820312 L 553.796875 510.511719 C 553.792969 512.074219 553.710938 513.632812 553.554688 515.191406 C 553.398438 516.746094 553.164062 518.289062 552.859375 519.820312 C 552.550781 521.355469 552.167969 522.867188 551.710938 524.363281 C 551.253906 525.855469 550.726562 527.328125 550.125 528.769531 C 549.523438 530.210938 548.851562 531.621094 548.113281 533 C 547.375 534.378906 546.570312 535.714844 545.699219 537.015625 C 544.832031 538.3125 543.898438 539.566406 542.90625 540.773438 C 541.914062 541.980469 540.863281 543.136719 539.757812 544.242188 C 538.648438 545.34375 537.492188 546.390625 536.285156 547.382812 C 535.074219 548.375 533.820312 549.304688 532.519531 550.171875 C 531.21875 551.039062 529.878906 551.839844 528.5 552.578125 C 527.121094 553.3125 525.710938 553.980469 524.265625 554.578125 C 522.820312 555.179688 521.351562 555.703125 519.855469 556.15625 C 518.359375 556.613281 516.84375 556.992188 515.3125 557.296875 C 513.777344 557.601562 512.234375 557.832031 510.679688 557.984375 C 509.121094 558.140625 507.5625 558.21875 506 558.21875 Z M 48.394531 7.117188 C 47.027344 7.117188 45.664062 7.183594 44.304688 7.320312 C 42.949219 7.457031 41.597656 7.65625 40.261719 7.925781 C 38.921875 8.191406 37.597656 8.523438 36.292969 8.921875 C 34.984375 9.320312 33.703125 9.78125 32.441406 10.304688 C 31.179688 10.824219 29.945312 11.410156 28.742188 12.054688 C 27.539062 12.699219 26.367188 13.398438 25.234375 14.160156 C 24.097656 14.917969 23.003906 15.730469 21.949219 16.597656 C 20.890625 17.460938 19.882812 18.378906 18.917969 19.34375 C 17.949219 20.308594 17.035156 21.320312 16.167969 22.375 C 15.300781 23.429688 14.488281 24.527344 13.730469 25.660156 C 12.972656 26.796875 12.269531 27.964844 11.625 29.167969 C 10.980469 30.375 10.398438 31.605469 9.875 32.867188 C 9.351562 34.128906 8.890625 35.410156 8.492188 36.71875 C 8.097656 38.023438 7.761719 39.347656 7.496094 40.6875 C 7.226562 42.023438 7.027344 43.375 6.890625 44.730469 C 6.757812 46.089844 6.6875 47.453125 6.6875 48.820312 L 6.6875 510.511719 C 6.6875 511.878906 6.757812 513.238281 6.890625 514.597656 C 7.027344 515.957031 7.226562 517.304688 7.496094 518.644531 C 7.761719 519.984375 8.097656 521.304688 8.492188 522.613281 C 8.890625 523.917969 9.351562 525.203125 9.875 526.464844 C 10.398438 527.722656 10.980469 528.957031 11.625 530.160156 C 12.269531 531.363281 12.972656 532.535156 13.730469 533.667969 C 14.488281 534.804688 15.300781 535.898438 16.167969 536.953125 C 17.035156 538.011719 17.949219 539.019531 18.917969 539.984375 C 19.882812 540.953125 20.890625 541.867188 21.949219 542.734375 C 23.003906 543.601562 24.097656 544.414062 25.234375 545.171875 C 26.367188 545.929688 27.539062 546.632812 28.742188 547.277344 C 29.945312 547.921875 31.179688 548.503906 32.441406 549.027344 C 33.703125 549.550781 34.984375 550.011719 36.292969 550.410156 C 37.597656 550.804688 38.921875 551.136719 40.261719 551.40625 C 41.597656 551.671875 42.949219 551.875 44.304688 552.007812 C 45.664062 552.144531 47.027344 552.214844 48.394531 552.214844 L 506 552.214844 C 507.367188 552.214844 508.730469 552.144531 510.085938 552.011719 C 511.445312 551.875 512.796875 551.675781 514.136719 551.40625 C 515.476562 551.140625 516.796875 550.808594 518.105469 550.410156 C 519.414062 550.015625 520.695312 549.554688 521.957031 549.03125 C 523.21875 548.507812 524.453125 547.925781 525.65625 547.28125 C 526.863281 546.636719 528.03125 545.933594 529.167969 545.175781 C 530.304688 544.417969 531.398438 543.605469 532.457031 542.738281 C 533.511719 541.871094 534.523438 540.957031 535.488281 539.992188 C 536.457031 539.027344 537.371094 538.015625 538.238281 536.960938 C 539.105469 535.90625 539.917969 534.808594 540.679688 533.675781 C 541.4375 532.539062 542.140625 531.371094 542.785156 530.164062 C 543.429688 528.960938 544.015625 527.726562 544.539062 526.46875 C 545.0625 525.207031 545.523438 523.921875 545.921875 522.613281 C 546.316406 521.308594 546.652344 519.984375 546.917969 518.644531 C 547.1875 517.308594 547.390625 515.957031 547.523438 514.597656 C 547.660156 513.238281 547.730469 511.878906 547.730469 510.511719 L 547.730469 48.820312 C 547.730469 47.453125 547.660156 46.089844 547.527344 44.730469 C 547.390625 43.371094 547.1875 42.023438 546.921875 40.683594 C 546.652344 39.34375 546.320312 38.019531 545.921875 36.714844 C 545.523438 35.40625 545.066406 34.121094 544.539062 32.859375 C 544.015625 31.601562 543.433594 30.367188 542.789062 29.164062 C 542.144531 27.957031 541.441406 26.789062 540.683594 25.652344 C 539.921875 24.519531 539.109375 23.421875 538.242188 22.367188 C 537.375 21.3125 536.457031 20.300781 535.492188 19.335938 C 534.527344 18.371094 533.515625 17.453125 532.460938 16.585938 C 531.402344 15.722656 530.308594 14.910156 529.171875 14.148438 C 528.035156 13.390625 526.863281 12.691406 525.660156 12.046875 C 524.457031 11.402344 523.222656 10.820312 521.960938 10.296875 C 520.699219 9.773438 519.414062 9.3125 518.105469 8.917969 C 516.800781 8.519531 515.476562 8.1875 514.136719 7.921875 C 512.796875 7.652344 511.449219 7.453125 510.089844 7.316406 C 508.730469 7.183594 507.367188 7.117188 506 7.117188 Z M 48.394531 7.117188 " fill-opacity="1" fill-rule="nonzero"/></g></g></g></g></svg>